# xmcd
#
# Track frame offsets: 
#        150
#        16715
#        31253
#        51538
#        67621
#        81637
#        91944
#        108657
#        121639
#        133858
#        146817
#        161642
#
# Disc length: 2359 seconds
#
# Revision: 0
# Processed by: cddbd v1.5.1PL0 Copyright (c) Steve Scherf et al.
# Submitted via: ExactAudioCopy v0.95a3
#
DISCID=9f09350c
DTITLE=Rocio Durcal - Alma Ranchera
DYEAR=2004
DGENRE=Ranchera
TTITLE0=Un mundo raro
TTITLE1=Si Dios me quita la vida
TTITLE2=Cucurrucucu Paloma
TTITLE3=Fallaste Corazón
TTITLE4=Sufro Tu ausencia
TTITLE5=Fiesta en el corazón
TTITLE6=Amaneci en tus brazos
TTITLE7=echame a mi la culpa
TTITLE8=La Media Vuelta
TTITLE9=Esta tristeza mía
TTITLE10=Te parto el alma
TTITLE11=Vete a Volar
EXTD=
EXTT0=
EXTT1=
EXTT2=
EXTT3=
EXTT4=
EXTT5=
EXTT6=
EXTT7=
EXTT8=
EXTT9=
EXTT10=
EXTT11=
PLAYORDER=
